<svg xmlns="http://www.w3.org/2000/svg" xmlns:xlink="http://www.w3.org/1999/xlink" width="72" height="72"><path d="M1.51 59.70L14.41 9.28L21.59 9.28L34.49 59.70L28.23 59.70L24.40 43.24L11.60 43.24L7.77 59.70L1.51 59.70ZM23.24 38.21L18 14.38L12.73 38.21L23.24 38.21ZM39.30 45.21L45.35 45.21Q45.77 55.86 54.56 55.86L54.56 55.86Q57.73 55.86 59.84 54.28L59.84 54.28Q62.79 52.00 62.79 47.88L62.79 47.88Q62.79 43.45 59.10 40.08L59.10 40.08Q56.57 37.83 50.41 34.28L50.41 34.28Q40.68 28.55 40.68 20.60L40.68 20.60Q40.68 15.57 43.84 12.09L43.84 12.09Q47.67 7.84 54.07 7.84L54.07 7.84Q65.99 7.84 67.61 22.18L67.61 22.18L61.70 22.18Q61.45 18.88 60.33 16.91L60.33 16.91Q58.08 12.94 54.07 12.94L54.07 12.94Q49.92 12.94 47.88 15.75L47.88 15.75Q46.44 17.75 46.44 20.14L46.44 20.14Q46.44 25.84 55.72 31.25L55.72 31.25Q61.45 34.59 64.51 37.65L64.51 37.65Q68.63 41.66 68.63 47.81L68.63 47.81Q68.63 53.61 64.93 57.16L64.93 57.16Q61.00 61.14 54.74 61.14L54.74 61.14Q46.90 61.14 42.54 55.37L42.54 55.37Q39.52 51.36 39.30 45.21L39.30 45.21Z"/></svg>
