<svg viewBox="0 0 100 100" xmlns="http://www.w3.org/2000/svg"><path d="M79.5,59.5Q69,69,59.5,73.5Q50,78,32.5,81.5Q15,85,22.5,67.5Q30,50,26,36Q22,22,36,19.5Q50,17,60,23.5Q70,30,80,40Q90,50,79.5,59.5Z" stroke="none" stroke-width="0" fill="#f3eae5"/><path d="M88,66.5Q83,83,66.5,78.5Q50,74,38.5,73.5Q27,73,15,61.5Q3,50,13.5,37Q24,24,37,24.5Q50,25,60,27.5Q70,30,81.5,40Q93,50,88,66.5Z" stroke="none" stroke-width="0" fill="#f1e8e5"/><path d="M78.5,57.5Q65,65,57.5,80Q50,95,41.5,81Q33,67,22.5,58.5Q12,50,21.5,40.5Q31,31,40.5,27Q50,23,67.5,19Q85,15,88.5,32.5Q92,50,78.5,57.5Z" stroke="none" stroke-width="0" fill="#efe6e5"/><path d="M69,58.5Q67,67,58.5,77Q50,87,38,80.5Q26,74,13.5,62Q1,50,12,36.5Q23,23,36.5,21Q50,19,63.5,21Q77,23,74,36.5Q71,50,69,58.5Z" stroke="none" stroke-width="0" fill="#ede4e5"/><path d="M82,64.5Q79,79,64.5,84Q50,89,36.5,83Q23,77,15.5,63.5Q8,50,17,38Q26,26,38,19Q50,12,66,15Q82,18,83.5,34Q85,50,82,64.5Z" stroke="none" stroke-width="0" fill="#ebe2e5"/><path d="M91,66.5Q83,83,66.5,80.5Q50,78,32.5,81.5Q15,85,19.5,67.5Q24,50,25.5,38.5Q27,27,38.5,27.5Q50,28,66,23Q82,18,90.5,34Q99,50,91,66.5Z" stroke="none" stroke-width="0" fill="#e9e0e5"/><path d="M84,65.5Q81,81,65.5,87Q50,93,36.5,85Q23,77,13,63.5Q3,50,11.5,35Q20,20,35,18.5Q50,17,59.5,24Q69,31,78,40.5Q87,50,84,65.5Z" stroke="none" stroke-width="0" fill="#e7dee5"/><path d="M76,59Q68,68,59,75.5Q50,83,34.5,82Q19,81,15.5,65.5Q12,50,23.5,42.5Q35,35,42.5,24Q50,13,63.5,18Q77,23,80.5,36.5Q84,50,76,59Z" stroke="none" stroke-width="0" fill="#e5dce5"/><path d="M76,59Q68,68,59,75.5Q50,83,34.5,82Q19,81,15.5,65.5Q12,50,23.5,42.5Q35,35,42.5,24Q50,13,63.5,18Q77,23,80.5,36.5Q84,50,76,59Z" stroke="none" stroke-width="0" fill="#e3dae5"/><path d="M70.5,59.5Q69,69,59.5,81.5Q50,94,36,86Q22,78,14.5,64Q7,50,16,37.5Q25,25,37.5,14Q50,3,62,14.5Q74,26,73,38Q72,50,70.5,59.5Z" stroke="none" stroke-width="0" fill="#e1d8e5"/><path d="M81.5,63Q76,76,63,77Q50,78,33,81Q16,84,14.5,67Q13,50,15,33.5Q17,17,33.5,12.5Q50,8,60.5,18.5Q71,29,79,39.5Q87,50,81.5,63Z" stroke="none" stroke-width="0" fill="#dfd6e5"/><path d="M77.5,65Q80,80,65,86Q50,92,39.5,81.5Q29,71,24.5,60.5Q20,50,25,40Q30,30,40,28Q50,26,59,29Q68,32,71.5,41Q75,50,77.5,65Z" stroke="none" stroke-width="0" fill="#ddd4e5"/><path d="M85,66.5Q83,83,66.5,84.5Q50,86,42.5,75.5Q35,65,28.5,57.5Q22,50,22,36Q22,22,36,17Q50,12,60,21Q70,30,78.5,40Q87,50,85,66.5Z" stroke="none" stroke-width="0" fill="#dbd2e5"/><path d="M72,58Q66,66,58,68.5Q50,71,35,75.5Q20,80,12,65Q4,50,13,36Q22,22,36,13Q50,4,57.5,19.5Q65,35,71.5,42.5Q78,50,72,58Z" stroke="none" stroke-width="0" fill="#d9d0e5"/><path d="M85,62.5Q75,75,62.5,77.5Q50,80,37.5,77.5Q25,75,17,62.5Q9,50,21,41.5Q33,33,41.5,27.5Q50,22,57.5,28.5Q65,35,80,42.5Q95,50,85,62.5Z" stroke="none" stroke-width="0" fill="#d7cee5"/><path d="M84.5,62.5Q75,75,62.5,75.5Q50,76,38,75Q26,74,27.5,62Q29,50,28,38.5Q27,27,38.5,16Q50,5,66.5,11Q83,17,88.5,33.5Q94,50,84.5,62.5Z" stroke="none" stroke-width="0" fill="#d5cce5"/><path d="M73.5,60.5Q71,71,60.5,80Q50,89,33.5,86Q17,83,12.5,66.5Q8,50,13.5,34.5Q19,19,34.5,12Q50,5,60,17.5Q70,30,73,40Q76,50,73.5,60.5Z" stroke="none" stroke-width="0" fill="#d3cae5"/><path d="M71.5,58Q66,66,58,77.5Q50,89,37.5,82Q25,75,20,62.5Q15,50,22,39.5Q29,29,39.5,20.5Q50,12,60.5,20.5Q71,29,74,39.5Q77,50,71.5,58Z" stroke="none" stroke-width="0" fill="#d1c8e5"/><path d="M88,64.5Q79,79,64.5,78Q50,77,32.5,81Q15,85,19.5,67.5Q24,50,26,39Q28,28,39,25.5Q50,23,61.5,25Q73,27,85,38.5Q97,50,88,64.5Z" stroke="none" stroke-width="0" fill="#cfc6e5"/><path d="M75.5,61Q72,72,61,74Q50,76,42,71Q34,66,28.5,58Q23,50,21.5,35Q20,20,35,13Q50,6,62.5,15.5Q75,25,77,37.5Q79,50,75.5,61Z" stroke="none" stroke-width="0" fill="#cdc4e5"/><path d="M70.5,60.5Q71,71,60.5,78Q50,85,34.5,83Q19,81,14.5,65.5Q10,50,21,41Q32,32,41,25Q50,18,62.5,21.5Q75,25,72.5,37.5Q70,50,70.5,60.5Z" stroke="none" stroke-width="0" fill="#cbc2e5"/><path d="M84.5,65Q80,80,65,76Q50,72,41,70Q32,68,18,59Q4,50,17.5,40.5Q31,31,40.5,24.5Q50,18,67.5,16.5Q85,15,87,32.5Q89,50,84.5,65Z" stroke="none" stroke-width="0" fill="#c9c0e5"/><path d="M79,63.5Q77,77,63.5,78.5Q50,80,37.5,77.5Q25,75,13.5,62.5Q2,50,14,38Q26,26,38,22.5Q50,19,61,23.5Q72,28,76.5,39Q81,50,79,63.5Z" stroke="none" stroke-width="0" fill="#c7bee5"/><path d="M71,58.5Q67,67,58.5,80Q50,93,39.5,82Q29,71,25,60.5Q21,50,19.5,34Q18,18,34,22Q50,26,62,26Q74,26,74.5,38Q75,50,71,58.5Z" stroke="none" stroke-width="0" fill="#c5bce5"/><path d="M87.5,67Q84,84,67,92Q50,100,35.5,89.5Q21,79,19.5,64.5Q18,50,22.5,38.5Q27,27,38.5,22.5Q50,18,61,23Q72,28,81.5,39Q91,50,87.5,67Z" stroke="none" stroke-width="0" fill="#c3bae5"/><path d="M74.5,63.5Q77,77,63.5,82Q50,87,35,83.5Q20,80,20,65Q20,50,20,35Q20,20,35,18.5Q50,17,57.5,26Q65,35,68.5,42.5Q72,50,74.5,63.5Z" stroke="none" stroke-width="0" fill="#c1b8e5"/><path d="M77.5,63.5Q77,77,63.5,88Q50,99,33.5,91Q17,83,14,66.5Q11,50,17.5,37Q24,24,37,22.5Q50,21,65.5,20Q81,19,79.5,34.5Q78,50,77.5,63.5Z" stroke="none" stroke-width="0" fill="#bfb6e5"/><path d="M77,60Q70,70,60,75.5Q50,81,41.5,74Q33,67,29.5,58.5Q26,50,24.5,36.5Q23,23,36.5,18Q50,13,63.5,18Q77,23,80.5,36.5Q84,50,77,60Z" stroke="none" stroke-width="0" fill="#bdb4e5"/><path d="M76.5,62Q74,74,62,76Q50,78,37.5,76.5Q25,75,26,62.5Q27,50,26,37.5Q25,25,37.5,15Q50,5,60.5,17Q71,29,75,39.5Q79,50,76.5,62Z" stroke="none" stroke-width="0" fill="#bbb2e5"/><path d="M87.5,65.5Q81,81,65.5,78Q50,75,38,74.5Q26,74,20,62Q14,50,18,36Q22,22,36,22Q50,22,66,20Q82,18,88,34Q94,50,87.5,65.5Z" stroke="none" stroke-width="0" fill="#b9b0e5"/><path d="M84,62Q74,74,62,73Q50,72,42.5,68.5Q35,65,20.5,57.5Q6,50,17.5,39.5Q29,29,39.5,21.5Q50,14,64.5,17.5Q79,21,86.5,35.5Q94,50,84,62Z" stroke="none" stroke-width="0" fill="#b7aee5"/><path d="M80,64.5Q79,79,64.5,86Q50,93,39,82.5Q28,72,23,61Q18,50,18.5,34.5Q19,19,34.5,15Q50,11,63.5,17Q77,23,79,36.5Q81,50,80,64.5Z" stroke="none" stroke-width="0" fill="#b5ace5"/><path d="M81,67.5Q85,85,67.5,78.5Q50,72,35.5,75.5Q21,79,11,64.5Q1,50,18,42.5Q35,35,42.5,20.5Q50,6,58,20Q66,34,71.5,42Q77,50,81,67.5Z" stroke="none" stroke-width="0" fill="#b3aae5"/><path d="M86,63Q76,76,63,83Q50,90,42.5,77.5Q35,65,20.5,57.5Q6,50,15,37Q24,24,37,12.5Q50,1,64,11.5Q78,22,87,36Q96,50,86,63Z" stroke="none" stroke-width="0" fill="#b1a8e5"/><path d="M86.5,67Q84,84,67,89Q50,94,36.5,85.5Q23,77,13,63.5Q3,50,10.5,34Q18,18,34,20Q50,22,64,22Q78,22,83.5,36Q89,50,86.5,67Z" stroke="none" stroke-width="0" fill="#afa6e5"/><path d="M76.5,63.5Q77,77,63.5,83Q50,89,39.5,80Q29,71,26.5,60.5Q24,50,24,37Q24,24,37,13.5Q50,3,66,10.5Q82,18,79,34Q76,50,76.5,63.5Z" stroke="none" stroke-width="0" fill="#ada4e5"/><path d="M79,65.5Q81,81,65.5,77Q50,73,34.5,77Q19,81,16,65.5Q13,50,22.5,41Q32,32,41,22Q50,12,60,21Q70,30,73.5,40Q77,50,79,65.5Z" stroke="none" stroke-width="0" fill="#aba2e5"/><path d="M81.5,67Q84,84,67,82.5Q50,81,40,75.5Q30,70,16,60Q2,50,13,37Q24,24,37,15.5Q50,7,66,12.5Q82,18,80.5,34Q79,50,81.5,67Z" stroke="none" stroke-width="0" fill="#a9a0e5"/><path d="M85,66.5Q83,83,66.5,83.5Q50,84,42.5,74.5Q35,65,26,57.5Q17,50,18,34.5Q19,19,34.5,11Q50,3,64.5,12Q79,21,83,35.5Q87,50,85,66.5Z" stroke="none" stroke-width="0" fill="#a79ee5"/><path d="M82.5,59.5Q69,69,59.5,70Q50,71,41,69.5Q32,68,30,59Q28,50,22.5,33.5Q17,17,33.5,20.5Q50,24,58.5,28.5Q67,33,81.5,41.5Q96,50,82.5,59.5Z" stroke="none" stroke-width="0" fill="#a59ce5"/><path d="M82,58.5Q67,67,58.5,81Q50,95,34,88.5Q18,82,19,66Q20,50,20,35Q20,20,35,16Q50,12,64.5,16.5Q79,21,88,35.5Q97,50,82,58.5Z" stroke="none" stroke-width="0" fill="#a39ae5"/><path d="M74,62.5Q75,75,62.5,74.5Q50,74,38,74Q26,74,25,62Q24,50,27,40Q30,30,40,24Q50,18,60.5,23.5Q71,29,72,39.5Q73,50,74,62.5Z" stroke="none" stroke-width="0" fill="#a198e5"/><path d="M81,66Q82,82,66,86.5Q50,91,34,86.5Q18,82,11,66Q4,50,19.5,42.5Q35,35,42.5,21.5Q50,8,63.5,15.5Q77,23,78.5,36.5Q80,50,81,66Z" stroke="none" stroke-width="0" fill="#9f96e5"/><path d="M85.5,67.5Q85,85,67.5,81Q50,77,38,75.5Q26,74,23,62Q20,50,26,41Q32,32,41,21.5Q50,11,62.5,18Q75,25,80.5,37.5Q86,50,85.5,67.5Z" stroke="none" stroke-width="0" fill="#9d94e5"/><path d="M86.5,64.5Q79,79,64.5,88.5Q50,98,34,90Q18,82,14,66Q10,50,17.5,37.5Q25,25,37.5,14Q50,3,64,12.5Q78,22,86,36Q94,50,86.5,64.5Z" stroke="none" stroke-width="0" fill="#9b92e5"/><path d="M78,59Q68,68,59,73Q50,78,32.5,81.5Q15,85,20,67.5Q25,50,25,37.5Q25,25,37.5,22Q50,19,64.5,20Q79,21,83.5,35.5Q88,50,78,59Z" stroke="none" stroke-width="0" fill="#9990e5"/><path d="M76.5,57.5Q65,65,57.5,73Q50,81,37.5,78Q25,75,20.5,62.5Q16,50,21,38Q26,26,38,21Q50,16,66,17Q82,18,85,34Q88,50,76.5,57.5Z" stroke="none" stroke-width="0" fill="#978ee5"/><path d="M79.5,61.5Q73,73,61.5,76.5Q50,80,40,75Q30,70,28,60Q26,50,28.5,40.5Q31,31,40.5,22Q50,13,67.5,14Q85,15,85.5,32.5Q86,50,79.5,61.5Z" stroke="none" stroke-width="0" fill="#958ce5"/><path d="M75.5,65Q80,80,65,85.5Q50,91,36.5,84Q23,77,21.5,63.5Q20,50,27,42Q34,34,42,31.5Q50,29,63,26.5Q76,24,73.5,37Q71,50,75.5,65Z" stroke="none" stroke-width="0" fill="#938ae5"/><path d="M81.5,63.5Q77,77,63.5,74.5Q50,72,40,71Q30,70,17.5,60Q5,50,19.5,42Q34,34,42,19.5Q50,5,62,15.5Q74,26,80,38Q86,50,81.5,63.5Z" stroke="none" stroke-width="0" fill="#9188e5"/><path d="M85,66.5Q83,83,66.5,84.5Q50,86,42.5,75.5Q35,65,28.5,57.5Q22,50,22,36Q22,22,36,17Q50,12,60,21Q70,30,78.5,40Q87,50,85,66.5Z" stroke="none" stroke-width="0" fill="#8f86e5"/><path d="M75,58Q66,66,58,81Q50,96,33.5,89.5Q17,83,23,66.5Q29,50,28.5,39Q28,28,39,23Q50,18,61,23Q72,28,78,39Q84,50,75,58Z" stroke="none" stroke-width="0" fill="#8d84e5"/><path d="M84.5,61Q72,72,61,77Q50,82,37.5,78.5Q25,75,24.5,62.5Q24,50,20.5,33.5Q17,17,33.5,18Q50,19,66,18.5Q82,18,89.5,34Q97,50,84.5,61Z" stroke="none" stroke-width="0" fill="#8b82e5"/><path d="M85,63Q76,76,63,73.5Q50,71,33,77.5Q16,84,12,67Q8,50,15,36Q22,22,36,21.5Q50,21,60,25.5Q70,30,82,40Q94,50,85,63Z" stroke="none" stroke-width="0" fill="#8980e5"/><path d="M72,61.5Q73,73,61.5,79Q50,85,39,78.5Q28,72,19,61Q10,50,17,37Q24,24,37,14.5Q50,5,58.5,19Q67,33,69,41.5Q71,50,72,61.5Z" stroke="none" stroke-width="0" fill="#877ee5"/><path d="M84,66Q82,82,66,80.5Q50,79,33.5,81Q17,83,18,66.5Q19,50,24.5,40Q30,30,40,20Q50,10,60.5,19.5Q71,29,78.5,39.5Q86,50,84,66Z" stroke="none" stroke-width="0" fill="#857ce5"/><path d="M74.5,60Q70,70,60,71Q50,72,38.5,72.5Q27,73,19.5,61.5Q12,50,18,37Q24,24,37,12.5Q50,1,58,17.5Q66,34,72.5,42Q79,50,74.5,60Z" stroke="none" stroke-width="0" fill="#837ae5"/><path d="M81.5,67Q84,84,67,82.5Q50,81,40,75.5Q30,70,16,60Q2,50,13,37Q24,24,37,15.5Q50,7,66,12.5Q82,18,80.5,34Q79,50,81.5,67Z" stroke="none" stroke-width="0" fill="#8178e5"/><path d="M81,60Q70,70,60,76Q50,82,37,79Q24,76,23.5,63Q23,50,23.5,37Q24,24,37,22Q50,20,65.5,19.5Q81,19,86.5,34.5Q92,50,81,60Z" stroke="none" stroke-width="0" fill="#7f76e5"/><path d="M81.5,67.5Q85,85,67.5,81.5Q50,78,40.5,73.5Q31,69,19,59.5Q7,50,17.5,39Q28,28,39,17.5Q50,7,66.5,12Q83,17,80.5,33.5Q78,50,81.5,67.5Z" stroke="none" stroke-width="0" fill="#7d74e5"/><path d="M75.5,63Q76,76,63,79.5Q50,83,36.5,80Q23,77,24.5,63.5Q26,50,30,42Q34,34,42,20Q50,6,64.5,13.5Q79,21,77,35.5Q75,50,75.5,63Z" stroke="none" stroke-width="0" fill="#7b72e5"/><path d="M82.5,66Q82,82,66,91Q50,100,39.5,85.5Q29,71,15,60.5Q1,50,12.5,37Q24,24,37,26.5Q50,29,59.5,30Q69,31,76,40.5Q83,50,82.5,66Z" stroke="none" stroke-width="0" fill="#7970e5"/><path d="M89,64Q78,78,64,77Q50,76,36.5,76.5Q23,77,13,63.5Q3,50,10.5,34Q18,18,34,21.5Q50,25,60,27.5Q70,30,85,40Q100,50,89,64Z" stroke="none" stroke-width="0" fill="#776ee5"/><path d="M92.5,67.5Q85,85,67.5,79Q50,73,38.5,73Q27,73,22.5,61.5Q18,50,24.5,40.5Q31,31,40.5,16.5Q50,2,62,14Q74,26,87,38Q100,50,92.5,67.5Z" stroke="none" stroke-width="0" fill="#756ce5"/><path d="M77.5,65Q80,80,65,77.5Q50,75,40.5,72Q31,69,24,59.5Q17,50,17.5,34Q18,18,34,12Q50,6,64,14Q78,22,76.5,36Q75,50,77.5,65Z" stroke="none" stroke-width="0" fill="#736ae5"/><path d="M82,59.5Q69,69,59.5,71Q50,73,32.5,79Q15,85,18,67.5Q21,50,28.5,43Q36,36,43,31.5Q50,27,58,30.5Q66,34,80.5,42Q95,50,82,59.5Z" stroke="none" stroke-width="0" fill="#7168e5"/><path d="M84.5,63Q76,76,63,76.5Q50,77,41.5,72Q33,67,20,58.5Q7,50,13,34.5Q19,19,34.5,11.5Q50,4,64,13Q78,22,85.5,36Q93,50,84.5,63Z" stroke="none" stroke-width="0" fill="#6f66e5"/><path d="M88.5,65.5Q81,81,65.5,78.5Q50,76,33,80Q16,84,15,67Q14,50,20.5,38.5Q27,27,38.5,24Q50,21,65,20.5Q80,20,88,35Q96,50,88.5,65.5Z" stroke="none" stroke-width="0" fill="#6d64e5"/><path d="M73.5,59.5Q69,69,59.5,79.5Q50,90,36.5,83.5Q23,77,18.5,63.5Q14,50,16.5,34.5Q19,19,34.5,12Q50,5,64.5,13Q79,21,78.5,35.5Q78,50,73.5,59.5Z" stroke="none" stroke-width="0" fill="#6b62e5"/><path d="M81.5,61Q72,72,61,72.5Q50,73,38,73.5Q26,74,25,62Q24,50,25,38Q26,26,38,23.5Q50,21,66.5,19Q83,17,87,33.5Q91,50,81.5,61Z" stroke="none" stroke-width="0" fill="#6960e5"/><path d="M83.5,66.5Q83,83,66.5,78.5Q50,74,38,74Q26,74,13,62Q0,50,9.5,34.5Q19,19,34.5,17Q50,15,64.5,18Q79,21,81.5,35.5Q84,50,83.5,66.5Z" stroke="none" stroke-width="0" fill="#675ee5"/><path d="M84.5,64.5Q79,79,64.5,76Q50,73,40,71.5Q30,70,16,60Q2,50,17,41Q32,32,41,31Q50,30,61.5,28.5Q73,27,81.5,38.5Q90,50,84.5,64.5Z" stroke="none" stroke-width="0" fill="#655ce5"/><path d="M79,57.5Q65,65,57.5,70.5Q50,76,35.5,77.5Q21,79,25,64.5Q29,50,22.5,33Q16,16,33,19Q50,22,67.5,18.5Q85,15,89,32.5Q93,50,79,57.5Z" stroke="none" stroke-width="0" fill="#635ae5"/><path d="M78,65.5Q81,81,65.5,79.5Q50,78,35.5,78.5Q21,79,19.5,64.5Q18,50,24,40Q30,30,40,28.5Q50,27,67,21.5Q84,16,79.5,33Q75,50,78,65.5Z" stroke="none" stroke-width="0" fill="#6158e5"/><path d="M79.5,67Q84,84,67,91Q50,98,34.5,89.5Q19,81,17.5,65.5Q16,50,21.5,38.5Q27,27,38.5,19Q50,11,65.5,15Q81,19,78,34.5Q75,50,79.5,67Z" stroke="none" stroke-width="0" fill="#5f56e5"/><path d="M77,60Q70,70,60,77.5Q50,85,34.5,83Q19,81,15.5,65.5Q12,50,15.5,34.5Q19,19,34.5,24Q50,29,57.5,32Q65,35,74.5,42.5Q84,50,77,60Z" stroke="none" stroke-width="0" fill="#5d54e5"/><path d="M76.5,65.5Q81,81,65.5,86Q50,91,36.5,84Q23,77,14,63.5Q5,50,13.5,36Q22,22,36,19.5Q50,17,65,18.5Q80,20,76,35Q72,50,76.5,65.5Z" stroke="none" stroke-width="0" fill="#5b52e5"/><path d="M76,59Q68,68,59,75.5Q50,83,34.5,82Q19,81,15.5,65.5Q12,50,23.5,42.5Q35,35,42.5,24Q50,13,63.5,18Q77,23,80.5,36.5Q84,50,76,59Z" stroke="none" stroke-width="0" fill="#5950e5"/><path d="M84.5,66Q82,82,66,85.5Q50,89,37,82.5Q24,76,16,63Q8,50,16,37Q24,24,37,20Q50,16,60.5,22.5Q71,29,79,39.5Q87,50,84.5,66Z" stroke="none" stroke-width="0" fill="#574ee5"/><path d="M81,67.5Q85,85,67.5,78.5Q50,72,35.5,75.5Q21,79,11,64.5Q1,50,18,42.5Q35,35,42.5,20.5Q50,6,58,20Q66,34,71.5,42Q77,50,81,67.5Z" stroke="none" stroke-width="0" fill="#554ce5"/><path d="M76,61.5Q73,73,61.5,73.5Q50,74,34.5,77.5Q19,81,17,65.5Q15,50,23.5,41Q32,32,41,18.5Q50,5,57.5,20Q65,35,72,42.5Q79,50,76,61.5Z" stroke="none" stroke-width="0" fill="#534ae5"/><path d="M74.5,57.5Q65,65,57.5,73.5Q50,82,33.5,82.5Q17,83,13,66.5Q9,50,13,33.5Q17,17,33.5,18.5Q50,20,63,22Q76,24,80,37Q84,50,74.5,57.5Z" stroke="none" stroke-width="0" fill="#5148e5"/></svg>