<svg width="512" height="512" viewBox="0 0 512 512" fill="none" xmlns="http://www.w3.org/2000/svg">
  <defs>
    <linearGradient id="logo-grad" x1="80" y1="80" x2="432" y2="432" gradientUnits="userSpaceOnUse">
      <stop offset="0%" stop-color="#60a5fa"/>
      <stop offset="45%" stop-color="#6366f1"/>
      <stop offset="100%" stop-color="#3b82f6"/>
    </linearGradient>
  </defs>

  <!-- AS Monogram — Sora-style geometric letterforms, manually refined -->
  <!-- A: clean triangular crossbar, sharp apex -->
  <path d="
    M178 400
    L256 88
    L334 400
    H292
    L274 322
    H238
    L220 400
    H178
    Z
    M268 290
    L256 152
    L244 290
    H268
  " fill="url(#logo-grad)"/>

  <!-- S: smooth curves, balanced top/bottom bowls -->
  <path d="
    M356 316
    L388 316
    Q390 364 432 364
    Q448 364 456 356
    Q468 346 468 328
    Q468 308 452 294
    Q440 284 412 268
    Q366 242 366 204
    Q366 182 380 166
    Q396 148 426 148
    Q478 148 484 212
    L456 212
    Q455 196 448 186
    Q438 168 424 168
    Q406 168 398 180
    Q392 188 392 202
    Q392 226 432 252
    Q458 268 472 282
    Q490 302 490 330
    Q490 358 474 374
    Q456 392 428 392
    Q392 392 374 366
    Q362 348 356 316
  " fill="url(#logo-grad)"/>
</svg>
